<svg width="652" height="670" viewBox="0 0 652 670" fill="none" xmlns="http://www.w3.org/2000/svg" xmlns:xlink="http://www.w3.org/1999/xlink">
<path d="M622.896,370.724C622.896,370.724 622.804,181.878 524.378,91.683C437.492,12.06 317.876,-4.114 237.55,87.958C208.927,120.761 174.319,154.958 138.368,177.872C98.074,203.573 51,215.311 23.524,300.402C-3.951,385.492 38.573,510.286 100.878,554.466C163.183,598.646 260.814,582.23 344.726,563.752C428.638,545.274 615.58,605.064 622.896,370.724Z" fill="#FFCB47"/>
<g opacity="0.7">
<path d="M622.896,370.724C622.896,370.724 622.804,181.878 524.378,91.683C437.492,12.06 317.876,-4.114 237.55,87.958C208.927,120.761 174.319,154.958 138.368,177.872C98.074,203.573 51,215.311 23.524,300.402C-3.951,385.492 38.573,510.286 100.878,554.466C163.183,598.646 260.814,582.23 344.726,563.752C428.638,545.274 615.58,605.064 622.896,370.724Z" fill="#FFFFFF"/>
</g>
<g opacity="0.16">
<path d="M323.731,640.265C434.199,640.265 523.753,629.041 523.753,615.194C523.753,601.347 434.199,590.123 323.731,590.123C213.263,590.123 123.711,601.347 123.711,615.194C123.711,629.041 213.263,640.265 323.731,640.265Z" fill="#000000"/>
</g>
<g opacity="0.07">
<path d="M524.377,91.669C510.711,79.099 495.883,67.929 480.107,58.317L349.941,259.316L526.815,93.974C526.021,93.197 525.211,92.46 524.377,91.669ZM407.891,29.225C387.595,24.882 366.733,24.062 346.173,26.8L349.941,259.304L407.891,29.225ZM271.467,56.896C259.035,65.868 247.657,76.292 237.563,87.958C234.033,92.022 230.403,96.096 226.673,100.178L349.955,259.33L271.467,56.896ZM164.682,159.031C156.229,165.762 147.451,172.05 138.38,177.872C118.86,190.28 97.8,199.486 78.044,215.311L349.941,259.33L164.682,159.031ZM15.505,344.126C13.118,380.4 19.808,419.662 32.756,455.172L349.941,259.33L15.505,344.126ZM349.941,259.33L123.502,567.302C156.441,582.042 196.043,584.722 237.079,581.48L349.941,259.33ZM349.941,259.33L360.713,561.206C383.989,558.646 412.415,559.436 441.861,558.136L349.941,259.33ZM604.143,468.504L349.941,259.33L547.863,533.508C570.903,520.256 590.711,499.9 604.143,468.504ZM614.901,288.1L349.941,259.33L622.647,360.808C621.559,336.428 618.971,312.144 614.901,288.1ZM571.987,154.529L349.941,259.33L595.289,208.839C589.017,190.096 581.223,171.929 571.987,154.529Z" fill="#000000"/>
</g>
<path d="M579.758,449.275C579.758,449.275 565.688,444.384 561.502,441.396C557.316,438.408 546.61,427.366 544.119,418.857C541.971,411.003 540.543,402.959 539.855,394.831C539.229,388.238 536.543,386.536 532.605,391.642C528.667,396.747 527.389,405.042 528.471,410.402C529.554,415.762 532.814,421.886 532.383,422.958C531.953,424.03 531.34,426.147 531.34,426.147C531.34,426.147 518.717,424.659 511.689,422.958C504.66,421.256 499.066,420.613 498.649,424.016C498.232,427.42 499.679,432.74 500.096,436.358C500.514,439.976 505.886,455.922 508.585,459.526C510.498,462.331 512.716,464.903 515.197,467.191C516.853,468.464 516.853,469.523 520.791,469.951C524.127,470.259 527.444,470.756 530.727,471.439C532.175,471.868 533.622,473.355 540.455,473.141C544.749,472.989 549.03,472.564 553.274,471.868L573.759,479.72L579.758,449.275Z" fill="#FFFFFF" stroke="#263238" stroke-width="0.75" stroke-miterlimit="10"/>
<path d="M573.134,445.228L564.645,483.083L578.519,488.818L585.548,449.489L573.134,445.228Z" fill="#FFFFFF" stroke="#263238" stroke-width="0.75" stroke-miterlimit="10"/>
<path d="M608.081,452.464L580.997,445.657L571.061,490.735L607.925,508.409L608.081,504.992L608.081,452.464Z" fill="#263238" stroke="#263238" stroke-width="0.75" stroke-miterlimit="10"/>
<path d="M530.506,428.009C529.766,427.889 529.766,427.889 529.766,427.889C529.766,427.89 529.766,427.89 529.766,427.89C529.766,427.89 529.766,427.891 529.766,427.892C529.765,427.893 529.765,427.895 529.765,427.898C529.764,427.904 529.762,427.912 529.761,427.923C529.757,427.945 529.752,427.978 529.745,428.02C529.731,428.105 529.711,428.231 529.686,428.391C529.634,428.712 529.561,429.173 529.474,429.734C529.299,430.857 529.065,432.382 528.832,433.992C528.369,437.178 527.892,440.792 527.892,442.2L529.392,442.2C529.392,440.928 529.846,437.447 530.316,434.207C530.549,432.604 530.781,431.085 530.956,429.965C531.043,429.406 531.116,428.946 531.167,428.627C531.192,428.467 531.212,428.343 531.226,428.258C531.233,428.216 531.238,428.184 531.241,428.162C531.243,428.151 531.244,428.143 531.245,428.137C531.246,428.135 531.246,428.133 531.246,428.131C531.246,428.131 531.247,428.13 531.247,428.13C531.247,428.13 531.247,428.129 531.247,428.129C531.247,428.129 531.247,428.129 530.506,428.009ZM527.892,442.2C527.892,443.07 528.337,444.187 528.915,445.282C529.512,446.415 530.323,447.654 531.191,448.812C532.059,449.97 532.999,451.065 533.862,451.905C534.293,452.324 534.716,452.691 535.111,452.971C535.49,453.241 535.906,453.477 536.316,453.561L536.616,452.091C536.517,452.071 536.307,451.981 535.98,451.749C535.669,451.527 535.306,451.217 534.908,450.83C534.114,450.057 533.225,449.024 532.391,447.912C531.557,446.801 530.793,445.629 530.241,444.583C529.67,443.499 529.392,442.669 529.392,442.2L527.892,442.2Z" fill="#263238"/>
<path d="M526.359,456.94C526.359,456.94 529.267,457.999 528.433,460.558C527.598,463.117 521.391,466.722 518.496,468.424C515.601,470.126 514.584,469.911 511.259,467.995C509.305,466.885 507.826,465.064 507.112,462.89C509.198,462.836 511.277,462.625 513.332,462.26L526.359,456.94Z" fill="#FFFFFF" stroke="#263238" stroke-width="0.75" stroke-miterlimit="10"/>
<path d="M502.562,451.392C502.562,451.392 502.562,461.174 504.844,462.032C507.023,462.896 509.341,463.328 511.677,463.305C513.124,463.091 522.852,459.687 524.717,458.414C526.581,457.141 528.446,454.394 527.416,451.821L526.373,449.275C523.228,449.829 520.044,450.111 516.853,450.119C511.637,450.119 502.992,448.418 502.366,449.061C501.74,449.704 502.562,451.392 502.562,451.392Z" fill="#FFFFFF" stroke="#263238" stroke-width="0.75" stroke-miterlimit="10"/>
<path d="M499.431,438.18C499.018,438.451 498.684,438.832 498.466,439.283C498.248,439.734 498.153,440.237 498.192,440.739C498.192,442.656 495.715,448.391 498.61,450.307C501.504,452.223 510.606,453.711 512.471,453.711C514.336,453.711 525.302,449.691 526.333,449.248C527.363,448.806 527.376,444.987 526.958,443.5C526.541,442.012 522.825,441.584 522.825,441.584C522.825,441.584 506.916,441.195 499.431,438.18Z" fill="#FFFFFF" stroke="#263238" stroke-width="0.75" stroke-miterlimit="10"/>
<path d="M504.843,425.236C504.843,425.236 511.467,430.341 512.667,430.77L522.812,434.388C522.812,434.388 524.116,435.018 524.116,437.577C524.093,438.679 523.686,439.736 522.968,440.555C522.249,441.375 521.269,441.901 520.204,442.039C518.144,442.468 510.685,443.741 507.999,442.682C504.337,440.822 500.811,438.69 497.45,436.304C495.585,434.964 495.376,433.316 496.406,430.944C497.302,428.652 498.064,426.307 498.688,423.922Z" fill="#FFFFFF" stroke="#263238" stroke-width="0.75" stroke-miterlimit="10"/>
<path d="M538.552,120.439C538.552,120.439 524.326,124.875 519.279,124.928C514.233,124.982 499.211,122.422 492.378,116.982C486.16,111.903 480.424,106.232 475.243,100.044C471.005,95.046 467.85,95.274 467.537,101.773C467.224,108.272 470.914,115.763 474.774,119.474C478.634,123.186 484.801,126.174 485.075,127.327C485.349,128.479 486.04,130.543 486.04,130.543C486.04,130.543 474.93,136.881 468.241,139.695C461.551,142.509 456.648,145.35 458.239,148.365C459.83,151.38 464.016,154.837 466.402,157.53C468.788,160.224 482.193,169.966 486.432,171.306C489.576,172.434 492.835,173.194 496.146,173.57C498.22,173.57 498.754,174.481 502.262,172.485C505.143,170.731 508.121,169.152 511.182,167.755C512.603,167.232 514.624,167.58 520.049,163.319C523.46,160.626 526.704,157.717 529.763,154.609L550.888,148.753L538.552,120.439Z" fill="#FFFFFF" stroke="#263238" stroke-width="0.75" stroke-miterlimit="10"/>
<path d="M530.858,121.109L545.398,156.968L559.925,153.35L543.364,117.143L530.858,121.109Z" fill="#FFFFFF" stroke="#263238" stroke-width="0.75" stroke-miterlimit="10"/>
<path d="M563.38,106.101L537.496,116.754L554.944,159.353L594.924,151.688L593.125,148.82L563.38,106.101Z" fill="#263238" stroke="#263238" stroke-width="0.75" stroke-miterlimit="10"/>
<path d="M486.393,132.66C485.716,132.983 485.716,132.983 485.716,132.983C485.716,132.983 485.716,132.984 485.716,132.984C485.716,132.984 485.717,132.985 485.717,132.985C485.717,132.987 485.718,132.988 485.72,132.991C485.722,132.996 485.726,133.004 485.73,133.014C485.74,133.034 485.754,133.063 485.773,133.102C485.81,133.179 485.864,133.293 485.934,133.438C486.074,133.729 486.275,134.147 486.522,134.655C487.015,135.672 487.688,137.051 488.409,138.501C489.837,141.374 491.493,144.606 492.292,145.784L493.533,144.942C492.806,143.869 491.202,140.75 489.752,137.833C489.034,136.389 488.363,135.015 487.872,134.001C487.626,133.494 487.425,133.078 487.286,132.788C487.216,132.644 487.162,132.531 487.125,132.454C487.107,132.415 487.093,132.386 487.083,132.366C487.079,132.356 487.075,132.349 487.073,132.344C487.072,132.341 487.071,132.34 487.07,132.338C487.07,132.338 487.07,132.337 487.069,132.337C487.069,132.337 487.069,132.337 487.069,132.337C487.069,132.337 487.069,132.337 486.393,132.66ZM492.292,145.784C492.79,146.519 493.789,147.174 494.879,147.724C496.007,148.293 497.367,148.814 498.729,149.231C500.091,149.648 501.479,149.968 502.666,150.126C503.26,150.205 503.817,150.245 504.305,150.233C504.777,150.222 505.252,150.16 505.636,149.986L505.017,148.62C504.906,148.67 504.669,148.724 504.268,148.734C503.884,148.743 503.409,148.711 502.864,148.639C501.777,148.494 500.471,148.195 499.168,147.797C497.865,147.398 496.588,146.906 495.555,146.385C494.485,145.845 493.798,145.333 493.533,144.942L492.292,145.784Z" fill="#263238"/>
<path d="M499.432,158.589C499.432,158.589 502.392,157.718 503.162,160.291C503.931,162.864 500.932,169.51 499.536,172.632C498.141,175.754 497.189,176.197 493.408,176.652C491.191,176.922 488.956,176.324 487.148,174.977C488.815,173.689 490.384,172.274 491.843,170.743L499.432,158.589Z" fill="#FFFFFF" stroke="#263238" stroke-width="0.75" stroke-miterlimit="10"/>
<path d="M476.964,168.317C476.964,168.317 482.493,176.277 484.788,175.607C487.05,175.005 489.182,173.973 491.074,172.565C492.13,171.52 498.115,162.944 498.898,160.787C499.68,158.629 499.641,155.279 497.359,153.819L495.077,152.358C492.832,154.691 490.403,156.829 487.814,158.75C483.602,161.832 475.569,165.651 475.426,166.535C475.282,167.42 476.964,168.317 476.964,168.317Z" fill="#FFFFFF" stroke="#263238" stroke-width="0.75" stroke-miterlimit="10"/>
<path d="M466.963,159.46C466.782,159.929 466.728,160.439 466.806,160.936C466.884,161.434 467.092,161.901 467.406,162.287C468.488,163.842 469.714,169.992 473.157,169.818C476.599,169.644 484.893,165.409 486.366,164.297C487.84,163.185 494.503,153.336 495.116,152.371C495.729,151.406 493.538,148.351 492.365,147.333C491.191,146.314 487.918,148.257 487.918,148.257C487.918,148.257 474.656,157.423 466.963,159.46Z" fill="#FFFFFF" stroke="#263238" stroke-width="0.75" stroke-miterlimit="10"/>
<path d="M464.003,145.685C464.003,145.685 472.27,145.872 473.522,145.484C474.774,145.095 483.824,142.362 483.824,142.362C483.824,142.362 485.193,142.134 486.641,144.211C487.251,145.122 487.519,146.231 487.394,147.33C487.269,148.429 486.761,149.444 485.962,150.187C484.528,151.782 479.195,157.262 476.404,158.013C472.367,158.689 468.288,159.065 464.199,159.138C461.969,159.138 460.834,157.946 460.287,155.427C459.714,153.032 459.004,150.674 458.161,148.365Z" fill="#FFFFFF" stroke="#263238" stroke-width="0.75" stroke-miterlimit="10"/>
<path d="M83.247,444.465C83.247,444.465 97.317,439.574 101.503,436.599C105.689,433.624 116.356,422.556 118.833,414.06C121.02,406.21 122.478,398.166 123.189,390.034C123.801,383.441 126.501,381.739 130.426,386.845C134.351,391.95 135.642,400.245 134.559,405.605C133.477,410.965 130.217,417.088 130.647,418.147C131.078,419.206 131.678,421.336 131.678,421.336C131.678,421.336 144.3,419.849 151.342,418.147C158.383,416.445 163.965,415.802 164.382,419.206C164.799,422.609 163.339,427.929 162.934,431.547C162.53,435.165 157.132,451.111 154.445,454.729C152.53,457.532 150.307,460.099 147.821,462.38C146.165,463.72 146.165,464.725 142.24,465.141C138.904,465.454 135.587,465.951 132.303,466.628C130.856,467.057 129.409,468.544 122.576,468.33C118.277,468.179 113.992,467.753 109.744,467.057L89.259,474.923L83.247,444.465Z" fill="#FFFFFF" stroke="#263238" stroke-width="0.75" stroke-miterlimit="10"/>
<path d="M89.871,440.418L98.348,478.273L84.486,484.021L77.444,444.679L89.871,440.418Z" fill="#FFFFFF" stroke="#263238" stroke-width="0.75" stroke-miterlimit="10"/>
<path d="M54.911,447.654L81.995,440.847L91.932,485.924L55.081,503.599L54.911,500.182L54.911,447.654Z" fill="#263238" stroke="#263238" stroke-width="0.75" stroke-miterlimit="10"/>
<path d="M132.499,423.199C131.759,423.319 131.759,423.319 131.759,423.319C131.759,423.319 131.759,423.319 131.759,423.319C131.759,423.32 131.759,423.32 131.759,423.321C131.76,423.322 131.76,423.324 131.76,423.327C131.761,423.333 131.763,423.341 131.764,423.352C131.768,423.373 131.773,423.405 131.78,423.448C131.793,423.532 131.813,423.656 131.839,423.816C131.89,424.134 131.962,424.593 132.05,425.152C132.224,426.27 132.457,427.789 132.689,429.393C133.159,432.635 133.614,436.13 133.614,437.443L135.114,437.443C135.114,435.995 134.636,432.368 134.174,429.178C133.94,427.567 133.707,426.042 133.532,424.921C133.444,424.36 133.371,423.899 133.32,423.579C133.295,423.419 133.274,423.294 133.261,423.209C133.254,423.167 133.249,423.134 133.245,423.112C133.243,423.101 133.242,423.093 133.241,423.087C133.241,423.084 133.24,423.082 133.24,423.081C133.24,423.08 133.24,423.079 133.24,423.079C133.24,423.079 133.24,423.079 133.24,423.079C133.24,423.079 133.24,423.079 132.499,423.199ZM133.614,437.443C133.614,437.935 133.333,438.776 132.762,439.86C132.21,440.909 131.445,442.079 130.611,443.186C129.777,444.293 128.887,445.32 128.094,446.089C127.696,446.473 127.333,446.783 127.022,447.004C126.696,447.236 126.485,447.328 126.384,447.349L126.696,448.816C127.1,448.73 127.513,448.495 127.891,448.227C128.284,447.948 128.706,447.583 129.137,447.166C129.999,446.331 130.94,445.242 131.809,444.088C132.678,442.934 133.491,441.697 134.089,440.559C134.67,439.457 135.114,438.332 135.114,437.443L133.614,437.443Z" fill="#263238"/>
<path d="M136.633,452.116C136.633,452.116 133.738,453.188 134.56,455.734C135.381,458.28 141.601,461.898 144.496,463.6C147.391,465.302 148.408,465.087 151.747,463.171C153.7,462.069 155.176,460.251 155.88,458.079C153.798,458.027 151.723,457.812 149.673,457.436L136.633,452.116Z" fill="#FFFFFF" stroke="#263238" stroke-width="0.75" stroke-miterlimit="10"/>
<path d="M160.392,446.595C160.392,446.595 160.392,456.377 158.123,457.221C155.95,458.114 153.63,458.569 151.29,458.561C149.843,458.347 140.115,454.957 138.25,453.67C136.385,452.384 134.521,449.65 135.564,447.078L136.594,444.532C139.739,445.085 142.923,445.367 146.113,445.376C151.329,445.376 159.975,443.674 160.601,444.317C161.227,444.96 160.392,446.595 160.392,446.595Z" fill="#FFFFFF" stroke="#263238" stroke-width="0.75" stroke-miterlimit="10"/>
<path d="M163.535,433.41C163.965,433.663 164.316,434.037 164.547,434.488C164.778,434.939 164.879,435.448 164.839,435.956C164.839,437.872 167.329,443.607 164.434,445.523C161.54,447.439 152.359,448.9 150.495,448.9C148.63,448.9 137.663,444.88 136.633,444.438C135.603,443.996 135.603,440.177 136.02,438.689C136.438,437.202 140.154,436.786 140.154,436.786C140.154,436.786 156.089,436.384 163.535,433.41Z" fill="#FFFFFF" stroke="#263238" stroke-width="0.75" stroke-miterlimit="10"/>
<path d="M158.162,420.438C158.162,420.438 151.537,425.53 150.338,425.959C149.138,426.388 140.193,429.577 140.193,429.577C140.193,429.577 138.889,430.22 138.889,432.766C138.909,433.869 139.316,434.928 140.034,435.748C140.753,436.567 141.735,437.093 142.801,437.229C144.874,437.657 152.32,438.93 155.019,437.872C158.696,436.01 162.235,433.874 165.608,431.48C167.472,430.207 167.681,428.505 166.638,426.12C165.749,423.827 164.991,421.482 164.369,419.098Z" fill="#FFFFFF" stroke="#263238" stroke-width="0.75" stroke-miterlimit="10"/>
<path d="M98.543,133.169C98.543,133.169 112.756,137.604 117.816,137.658C122.875,137.712 137.871,135.152 144.717,129.712C150.935,124.633 156.672,118.962 161.852,112.774C166.09,107.776 169.246,108.004 169.546,114.503C169.846,121.002 166.168,128.493 162.321,132.204C158.475,135.916 152.281,138.904 152.02,140.057C151.759,141.209 151.055,143.273 151.055,143.273C151.055,143.273 162.165,149.597 168.855,152.425C175.544,155.252 180.447,158.066 178.856,161.081C177.265,164.096 173.079,167.553 170.693,170.247C168.307,172.94 154.902,182.695 150.664,184.035C147.519,185.164 144.26,185.924 140.949,186.3C138.876,186.3 138.341,187.211 134.833,185.201C131.945,183.461 128.967,181.882 125.914,180.471C124.492,179.962 122.471,180.297 117.034,176.049C113.629,173.353 110.388,170.444 107.332,167.339L86.207,161.483L98.543,133.169Z" fill="#FFFFFF" stroke="#263238" stroke-width="0.75" stroke-miterlimit="10"/>
<path d="M106.223,133.839L91.684,169.698L77.157,166.08L93.718,129.873L106.223,133.839Z" fill="#FFFFFF" stroke="#263238" stroke-width="0.75" stroke-miterlimit="10"/>
<path d="M73.702,118.831L99.586,129.484L82.139,172.083L42.158,164.418L43.958,161.537L73.702,118.831Z" fill="#263238" stroke="#263238" stroke-width="0.75" stroke-miterlimit="10"/>
<path d="M150.651,145.323C149.974,145 149.974,145 149.974,145C149.974,145 149.974,145 149.974,145C149.974,145 149.974,145.001 149.973,145.001C149.973,145.003 149.972,145.005 149.971,145.007C149.968,145.012 149.965,145.019 149.96,145.029C149.951,145.049 149.936,145.078 149.918,145.117C149.881,145.194 149.827,145.307 149.757,145.451C149.618,145.741 149.417,146.157 149.172,146.664C148.68,147.677 148.01,149.051 147.292,150.495C145.841,153.41 144.238,156.525 143.511,157.59L144.751,158.435C145.55,157.263 147.206,154.033 148.634,151.163C149.356,149.713 150.029,148.335 150.522,147.318C150.768,146.81 150.969,146.392 151.109,146.102C151.179,145.956 151.234,145.842 151.271,145.765C151.289,145.726 151.303,145.697 151.313,145.677C151.318,145.667 151.321,145.659 151.324,145.654C151.325,145.652 151.326,145.65 151.327,145.648C151.327,145.648 151.327,145.647 151.327,145.647C151.327,145.647 151.327,145.647 151.328,145.646C151.328,145.646 151.328,145.646 150.651,145.323ZM143.511,157.59C143.246,157.979 142.559,158.49 141.488,159.03C140.454,159.553 139.177,160.047 137.873,160.452C136.569,160.857 135.261,161.165 134.171,161.322C133.626,161.4 133.149,161.439 132.761,161.437C132.358,161.434 132.117,161.387 132.003,161.339L131.431,162.726C131.812,162.883 132.283,162.934 132.752,162.937C133.237,162.94 133.793,162.892 134.385,162.807C135.57,162.636 136.956,162.307 138.317,161.885C139.678,161.462 141.037,160.938 142.164,160.369C143.254,159.819 144.253,159.166 144.751,158.435L143.511,157.59Z" fill="#263238"/>
<path d="M137.637,171.319C137.637,171.319 134.677,170.448 133.907,173.021C133.138,175.594 136.137,182.24 137.533,185.349C138.928,188.458 139.88,188.913 143.661,189.369C145.878,189.631 148.11,189.034 149.921,187.694C148.254,186.406 146.685,184.99 145.226,183.459L137.637,171.319Z" fill="#FFFFFF" stroke="#263238" stroke-width="0.75" stroke-miterlimit="10"/>
<path d="M160.118,181.047C160.118,181.047 154.576,189.007 152.294,188.337C150.029,187.74 147.895,186.703 146.009,185.282C144.953,184.25 138.967,175.661 138.185,173.517C137.403,171.373 137.455,167.996 139.737,166.548L142.019,165.088C144.258,167.423 146.688,169.557 149.282,171.466C153.494,174.562 161.526,178.381 161.67,179.265C161.813,180.149 160.118,181.047 160.118,181.047Z" fill="#FFFFFF" stroke="#263238" stroke-width="0.75" stroke-miterlimit="10"/>
<path d="M170.107,172.176C170.292,172.643 170.349,173.153 170.274,173.652C170.198,174.15 169.991,174.617 169.676,175.004C168.594,176.558 167.355,182.709 163.926,182.535C160.496,182.36 152.19,178.126 150.716,177.014C149.243,175.902 142.566,166.053 141.966,165.088C141.366,164.123 143.531,161.068 144.718,160.049C145.904,159.031 149.164,160.961 149.164,160.961C149.164,160.961 162.361,170.18 170.107,172.176Z" fill="#FFFFFF" stroke="#263238" stroke-width="0.75" stroke-miterlimit="10"/>
<path d="M173.08,158.415C173.08,158.415 164.799,158.602 163.548,158.214C162.296,157.825 153.259,155.078 153.259,155.078C153.259,155.078 151.955,154.864 150.442,156.941C149.833,157.852 149.565,158.958 149.687,160.057C149.809,161.155 150.314,162.171 151.107,162.917C152.555,164.498 157.888,169.992 160.679,170.743C164.715,171.421 168.795,171.793 172.884,171.855C175.114,171.935 176.248,170.676 176.731,168.156C177.305,165.757 178.014,163.395 178.856,161.081Z" fill="#FFFFFF" stroke="#263238" stroke-width="0.75" stroke-miterlimit="10"/>
<path d="M289.488,327.429C289.488,327.429 280.36,368.513 279.995,387.836C279.63,407.159 280.673,476.799 281.025,491.74C281.377,506.681 287.767,555.176 287.767,559.544C287.767,563.912 288.836,572.3 288.836,572.3L285.994,587.978C283.212,590.188 280.244,592.138 277.126,593.808C270.737,597.452 263.291,602.196 261.165,604.742C260.906,605.048 260.723,605.414 260.63,605.81C260.538,606.204 260.539,606.616 260.633,607.01C260.728,607.404 260.913,607.768 261.174,608.074C261.434,608.378 261.762,608.614 262.13,608.762C264.659,609.78 267.323,610.4 270.032,610.598C276.057,610.96 285.994,610.96 291.314,609.5C296.634,608.038 300.898,603.308 303.376,601.46L305.866,599.636L306.219,603.656C307.413,603.476 308.597,603.23 309.765,602.92C312.369,602.15 314.87,601.05 317.211,599.65C317.211,599.65 317.563,593.446 317.563,589.802C317.563,586.156 315.79,579.59 315.438,578.144C315.086,576.696 315.438,563.55 314.382,559.182C313.325,554.814 312.608,555.9 311.891,547.886C311.174,539.872 317.563,464.029 317.211,461.844C316.859,459.66 326.235,393.96 326.235,393.96C326.235,393.96 344.165,479.72 349.837,496.135C355.51,512.55 358.352,544.254 358.352,546.452C358.352,548.65 361.547,574.512 362.969,578.17C364.39,581.828 368.289,593.112 368.289,593.112C368.289,593.112 373.961,601.862 376.439,606.23C378.917,610.598 387.445,614.27 393.821,615.342C400.198,616.414 405.179,616.802 405.557,608.052C405.935,599.302 402.728,593.472 397.394,589.466C392.061,585.46 391.018,581.814 391.018,581.814C391.404,576.462 391.404,571.088 391.018,565.734C390.3,559.53 386.402,554.788 386.049,542.03C385.697,529.274 383.207,462.193 381.081,451.62C378.956,441.048 376.152,370.322 376.504,360.5C376.856,350.678 375.604,323.235 375.604,323.235L289.227,322.23L289.488,327.429Z" fill="#263238" stroke="#263238" stroke-width="0.75" stroke-miterlimit="10"/>
<path d="M323.391,180.552C323.391,180.552 310.208,188.592 300.871,193.335C291.535,198.079 280.138,200.839 278.977,203.533C277.817,206.226 257.67,250.339 253.875,256.329C250.081,262.318 241.031,274.03 242.778,280.623C244.525,287.216 251.828,296.22 256.496,295.631C261.165,295.041 270.514,292.321 274.309,285.433C278.103,278.546 287.153,256.329 287.153,256.329C287.153,256.329 288.614,277.032 288.314,287.229C288.014,297.426 288.027,305.828 287.44,310.92C286.853,316.012 284.232,322.324 285.393,324.119C286.553,325.915 288.001,327.724 289.487,327.429C290.974,327.134 312.842,326.826 319.479,327.121C326.117,327.416 356.552,327.121 362.981,327.429C369.409,327.737 374.952,324.427 375.525,323.221C376.099,322.015 377.286,320.22 376.699,313.627C376.112,307.034 377.286,286.934 379.033,279.135C380.78,271.337 391.291,241.334 391.291,241.334C391.291,241.334 419.027,263.833 424.869,265.628C430.711,267.424 446.463,264.73 451.719,258.138C456.973,251.545 458.721,246.426 455.513,241.937C452.305,237.448 440.621,233.24 428.363,219.733C416.106,206.226 411.411,199.941 402.974,195.734C394.538,191.526 377.286,185.845 373.191,184.036C369.097,182.227 367.975,181.356 365.367,180.136C362.759,178.917 356.604,176.545 345.22,176.237C337.743,176.238 330.335,177.702 323.391,180.552Z" fill="#FFCB47" stroke="#263238" stroke-width="0.75" stroke-miterlimit="10"/>
<path d="M287.14,256.329L286.467,256.659L287.863,256.129L287.14,256.329ZM280.537,235.278C280.739,236 282.209,241.312 283.629,246.445C284.339,249.011 285.036,251.532 285.556,253.411C285.815,254.351 286.031,255.13 286.181,255.675C286.257,255.947 286.316,256.16 286.356,256.306C286.376,256.378 286.391,256.434 286.402,256.472C286.407,256.49 286.411,256.505 286.414,256.514C286.415,256.519 286.416,256.522 286.417,256.525C286.417,256.526 286.417,256.527 286.417,256.528C286.417,256.528 286.417,256.528 286.418,256.528C286.418,256.528 286.418,256.528 287.14,256.329C287.863,256.129 287.863,256.129 287.863,256.128C287.863,256.128 287.863,256.128 287.863,256.128C287.863,256.127 287.863,256.126 287.862,256.125C287.862,256.123 287.861,256.119 287.859,256.114C287.857,256.105 287.853,256.091 287.848,256.072C287.837,256.034 287.822,255.979 287.802,255.906C287.762,255.761 287.702,255.547 287.627,255.275C287.477,254.73 287.261,253.951 287.001,253.011C286.481,251.132 285.784,248.611 285.074,246.045C283.655,240.914 282.184,235.599 281.982,234.874L280.537,235.278ZM287.814,255.998L279.729,239.529L278.382,240.19L286.467,256.659L287.814,255.998Z" fill="#263238"/>
<path d="M391.343,240.584C391.396,240.584 391.378,240.593 391.233,240.545C391.112,240.506 390.949,240.443 390.744,240.356C390.336,240.182 389.804,239.928 389.187,239.617C387.954,238.996 386.416,238.164 384.908,237.328C383.402,236.493 381.933,235.657 380.84,235.03C380.294,234.717 379.842,234.456 379.527,234.273C379.369,234.181 379.246,234.11 379.162,234.061C379.12,234.036 379.087,234.018 379.066,234.005C379.055,233.999 379.047,233.994 379.042,233.991C379.039,233.989 379.037,233.988 379.035,233.987C379.035,233.987 379.034,233.987 379.034,233.986C379.034,233.986 379.034,233.986 379.034,233.986C379.033,233.986 379.033,233.986 378.655,234.634C378.277,235.281 378.277,235.282 378.277,235.282C378.277,235.282 378.278,235.282 378.278,235.282C378.278,235.282 378.279,235.282 378.279,235.283C378.281,235.284 378.283,235.285 378.286,235.286C378.291,235.29 378.3,235.295 378.311,235.301C378.332,235.314 378.365,235.333 378.407,235.357C378.492,235.407 378.616,235.479 378.775,235.571C379.092,235.754 379.546,236.017 380.094,236.331C381.191,236.96 382.666,237.8 384.181,238.64C385.694,239.479 387.252,240.322 388.512,240.957C389.14,241.273 389.704,241.543 390.156,241.736C390.381,241.832 390.589,241.913 390.769,241.972C390.925,242.023 391.139,242.084 391.343,242.084L391.343,240.584Z" fill="#263238"/>
<path d="M372.813,233.843C372.212,234.292 372.212,234.292 372.213,234.292C372.213,234.292 372.213,234.292 372.213,234.292C372.213,234.293 372.213,234.293 372.214,234.294C372.215,234.295 372.216,234.296 372.217,234.298C372.22,234.301 372.223,234.306 372.228,234.313C372.238,234.326 372.252,234.344 372.27,234.368C372.307,234.416 372.36,234.486 372.429,234.574C372.568,234.751 372.768,235.004 373.022,235.31C373.528,235.922 374.246,236.752 375.095,237.623C376.759,239.331 379.039,241.32 381.253,241.997L381.691,240.563C379.876,240.008 377.827,238.278 376.169,236.576C375.356,235.742 374.665,234.944 374.178,234.354C373.934,234.059 373.742,233.818 373.611,233.65C373.546,233.567 373.496,233.502 373.463,233.458C373.446,233.437 373.434,233.42 373.426,233.409C373.422,233.404 373.419,233.4 373.417,233.398C373.416,233.396 373.415,233.396 373.415,233.395C373.415,233.395 373.415,233.395 373.415,233.395C373.414,233.395 373.415,233.395 373.414,233.395C373.415,233.395 373.415,233.395 372.813,233.843Z" fill="#263238"/>
<path d="M321.749,198.95L325.413,213.167C325.413,213.167 313.808,272.784 311.982,282.847C310.87,288.927 310.121,295.071 309.739,301.245L319.91,321.948L332.742,299.57C332.742,299.57 331.516,271.337 331.112,248.758C330.708,226.179 331.516,215.258 331.307,214.668C331.099,214.078 344.139,204.203 344.139,204.203C344.139,204.203 351.663,195.627 352.067,194.166C352.471,192.705 346.786,194.581 345.547,195.841C344.16,197.047 342.518,197.901 340.751,198.336C338.985,198.772 337.144,198.775 335.376,198.347C330.082,197.302 323.157,191.245 322.14,194.166C321.531,195.681 321.395,197.352 321.749,198.95Z" fill="#263238" stroke="#263238" stroke-width="0.75" stroke-miterlimit="10"/>
<path d="M330.498,174.696C329.886,175.111 325.009,176.371 323.379,180.552C321.749,184.732 313.403,203.975 310.965,207.11C308.526,210.246 312.386,208.986 315.646,206.896C318.906,204.805 321.749,196.658 323.574,200.196C325.4,203.733 330.707,205.207 330.707,205.207C330.707,205.207 341.687,203.117 344.138,201.442C345.809,200.244 347.375,198.899 348.82,197.422C348.82,197.422 358.182,211.854 360.816,213.1C363.451,214.346 363.881,212.269 364.076,209.964C365.041,201.563 366.606,193.246 368.758,185.081C371.366,176.089 366.319,173.155 363.059,169.403C359.799,165.651 356.135,168.143 352.484,168.559C348.833,168.974 330.498,174.696 330.498,174.696Z" fill="#FFCB47" stroke="#263238" stroke-width="0.75" stroke-miterlimit="10"/>
<path d="M324.917,110.295C324.917,110.295 318.554,120.225 319.701,122.637C320.849,125.049 320.875,128.211 319.701,129.899C318.815,131.009 318.167,132.3 317.801,133.686C317.434,135.071 317.358,136.521 317.576,137.939C318.045,142.053 315.698,162.863 319.232,165.289C321.504,166.808 323.953,168.028 326.521,168.92C326.521,168.92 330.525,203.76 331.946,202.795C333.367,201.831 353.644,180.484 355.992,175.875C358.339,171.265 361.208,164.753 361.208,164.753C361.208,164.753 369.214,149.021 373.922,142.482C378.629,135.943 384.054,123.856 382.411,117.558C380.768,111.26 372.279,106.664 368.275,103.274C364.272,99.883 366.867,92.152 361.208,88.279C355.548,84.406 348.728,83.442 344.256,85.13C339.783,86.818 339.548,90.49 334.124,86.818C328.699,83.147 323.535,79.569 315.294,83.683C307.052,87.797 305.396,102.309 310.339,106.181C315.281,110.054 324.917,110.295 324.917,110.295Z" fill="#FFFFFF" stroke="#263238" stroke-width="0.75" stroke-miterlimit="10"/>
<path d="M368.25,103.274C364.247,99.897 366.842,92.152 361.182,88.279C355.523,84.406 348.703,83.442 344.23,85.13C339.758,86.818 339.523,90.49 334.098,86.818C328.673,83.147 323.51,79.569 315.268,83.683C307.027,87.797 305.371,102.309 310.313,106.181C315.255,110.054 324.918,110.295 324.918,110.295C324.918,110.295 331.986,106.905 336.654,104.252C341.322,101.599 351.963,105.94 353.841,107.642C355.718,109.344 352.902,108.124 352.432,111.26C351.963,114.396 357.844,119.501 360.439,121.98C363.034,124.459 359.97,126.094 359.265,129.243C358.561,132.392 361.378,133.598 363.034,132.392C364.69,131.186 369.854,124.352 371.745,128.278C373.635,132.204 376.452,137.953 371.275,142.067C366.098,146.18 362.317,145.216 362.317,145.216C362.317,145.216 360.635,155.694 365.525,156.512C368.063,151.711 370.844,147.051 373.857,142.549C378.578,136.023 383.989,123.923 382.346,117.625C380.703,111.327 372.253,106.664 368.25,103.274Z" fill="#263238" stroke="#263238" stroke-width="0.75" stroke-miterlimit="10"/>
<path d="M337.811,123.586C339.247,123.035 340.779,122.8 342.308,122.894L342.37,121.896C340.697,121.793 339.022,122.05 337.453,122.652L337.811,123.586Z" fill="#263238"/>
<path d="M325.476,125.016C324.268,125.279 323.101,125.71 322.008,126.297L322.481,127.178C323.493,126.634 324.572,126.236 325.689,125.993L325.476,125.016Z" fill="#263238"/>
<path d="M326.352,124.258L327.073,124.465L327.08,124.441L327.085,124.416L326.352,124.258ZM324.992,119.238C325.751,120.731 325.974,122.453 325.619,124.1L327.085,124.416C327.512,122.434 327.245,120.36 326.33,118.558L324.992,119.238ZM325.631,124.051C325.488,124.552 324.988,125.311 324.195,126.259C323.426,127.177 322.464,128.177 321.511,129.148C320.568,130.108 319.623,131.048 318.928,131.813C318.58,132.195 318.275,132.556 318.055,132.87C317.945,133.027 317.843,133.191 317.769,133.354C317.701,133.502 317.616,133.732 317.637,133.993L319.132,133.873C319.142,133.992 319.103,134.043 319.133,133.978C319.155,133.929 319.201,133.848 319.284,133.73C319.448,133.496 319.703,133.191 320.038,132.822C320.707,132.085 321.616,131.181 322.581,130.199C323.534,129.228 324.534,128.191 325.345,127.222C326.132,126.282 326.832,125.305 327.073,124.465L325.631,124.051ZM317.637,133.993C317.664,134.333 317.829,134.628 317.98,134.843C318.14,135.072 318.346,135.298 318.563,135.513C318.997,135.941 319.555,136.399 320.072,136.823C320.606,137.26 321.094,137.66 321.447,138.008C321.624,138.182 321.74,138.318 321.806,138.417C321.888,138.538 321.825,138.502 321.836,138.361L323.331,138.483C323.362,138.101 323.185,137.779 323.052,137.581C322.904,137.36 322.706,137.142 322.5,136.939C322.087,136.533 321.538,136.085 321.023,135.663C320.492,135.227 319.992,134.815 319.617,134.445C319.43,134.261 319.295,134.107 319.209,133.984C319.113,133.847 319.128,133.817 319.132,133.873L317.637,133.993ZM321.836,138.361C321.799,138.819 321.717,139.439 321.642,139.956C321.605,140.212 321.571,140.439 321.545,140.602C321.533,140.683 321.522,140.748 321.515,140.792C321.512,140.815 321.509,140.832 321.507,140.843C321.506,140.849 321.505,140.853 321.505,140.856C321.505,140.858 321.505,140.859 321.504,140.859C321.504,140.86 321.504,140.86 321.504,140.86C321.504,140.86 321.504,140.86 321.504,140.86C321.504,140.86 321.504,140.86 321.504,140.86C321.504,140.86 321.504,140.86 322.244,140.981C322.985,141.102 322.985,141.102 322.985,141.102C322.985,141.102 322.985,141.102 322.985,141.102C322.985,141.102 322.985,141.102 322.985,141.102C322.985,141.102 322.985,141.101 322.985,141.101C322.985,141.1 322.985,141.099 322.985,141.097C322.986,141.094 322.987,141.089 322.988,141.083C322.99,141.071 322.993,141.053 322.996,141.03C323.004,140.983 323.014,140.916 323.027,140.833C323.053,140.666 323.089,140.434 323.127,140.171C323.202,139.649 323.29,138.99 323.331,138.483L321.836,138.361Z" fill="#263238"/>
<path d="M341.595,126.469C342.445,126.469 343.134,125.599 343.134,124.526C343.134,123.453 342.445,122.583 341.595,122.583C340.746,122.583 340.057,123.453 340.057,124.526C340.057,125.599 340.746,126.469 341.595,126.469Z" fill="#263238" stroke="#263238" stroke-width="0.5" stroke-miterlimit="10"/>
<path d="M338.893,128.391C340.881,127.536 342.999,127.048 345.151,126.95L345.083,125.452C342.749,125.558 340.453,126.087 338.3,127.013L338.893,128.391Z" fill="#263238"/>
<path d="M333.159,116.044C333.159,116.044 338.206,111.233 342.118,112.198C346.03,113.163 347.516,117.036 346.89,117.049C346.264,117.062 344.282,114.074 342.144,113.846C340.005,113.619 338.479,114.664 336.628,115.629C334.776,116.593 333.642,117.263 333.159,116.044Z" fill="#263238" stroke="#263238" stroke-width="0.5" stroke-miterlimit="10"/>
<path d="M325.999,119.863C325.941,119.536 325.817,119.225 325.634,118.951C325.452,118.676 325.215,118.444 324.94,118.27C324.664,118.096 324.356,117.983 324.036,117.938C323.715,117.894 323.389,117.92 323.078,118.014C320.77,118.375 319.023,122.69 319.727,122.637C320.431,122.583 321.201,119.863 323,119.608C324.8,119.354 325.999,122.248 325.999,119.863Z" fill="#263238" stroke="#263238" stroke-width="0.5" stroke-miterlimit="10"/>
<path d="M343.252,140.285L342.549,140.022L342.543,140.039L342.537,140.057L343.252,140.285ZM322.088,146.449C322.177,147.193 322.177,147.193 322.177,147.193C322.177,147.193 322.177,147.193 322.177,147.193C322.177,147.193 322.178,147.193 322.178,147.193C322.178,147.193 322.179,147.193 322.18,147.193C322.182,147.193 322.184,147.192 322.188,147.192C322.195,147.191 322.206,147.19 322.22,147.188C322.248,147.185 322.29,147.18 322.346,147.173C322.456,147.16 322.619,147.14 322.83,147.114C323.251,147.063 323.863,146.989 324.625,146.895C326.148,146.707 328.272,146.442 330.672,146.134L330.481,144.646C328.084,144.954 325.963,145.219 324.441,145.406C323.68,145.5 323.07,145.574 322.649,145.625C322.439,145.651 322.276,145.67 322.166,145.684C322.111,145.69 322.069,145.695 322.041,145.699C322.027,145.7 322.016,145.702 322.009,145.703C322.006,145.703 322.003,145.703 322.001,145.704C322,145.704 322,145.704 321.999,145.704C321.999,145.704 321.999,145.704 321.999,145.704C321.999,145.704 321.999,145.704 321.999,145.704C321.999,145.704 321.999,145.704 322.088,146.449ZM330.672,146.134C333.064,145.827 336.016,145.425 338.517,144.644C339.769,144.252 340.947,143.755 341.898,143.1C342.852,142.444 343.62,141.6 343.966,140.512L342.537,140.057C342.323,140.731 341.826,141.329 341.048,141.864C340.268,142.401 339.246,142.844 338.07,143.212C335.713,143.948 332.889,144.337 330.481,144.646L330.672,146.134ZM343.954,140.548C344.629,138.745 344.933,136.82 344.849,134.892L343.35,134.957C343.426,136.685 343.153,138.409 342.549,140.022L343.954,140.548Z" fill="#263238"/>
<path d="M341.568,135.404C342.899,135.292 344.239,135.377 345.547,135.658L345.861,134.191C344.409,133.88 342.921,133.785 341.442,133.909L341.568,135.404Z" fill="#263238"/>
<path d="M361.273,152.05C360.599,155.316 358.732,158.193 356.057,160.09C351.78,162.89 320.367,166.093 321.41,166.495C322.453,166.897 326.535,168.907 326.535,168.907L327.761,180.364C332.708,175.863 338.21,172.052 344.126,169.028C354.532,163.48 361.026,161.644 361.273,152.05Z" fill="#263238" stroke="#263238" stroke-width="0.5" stroke-miterlimit="10"/>
<path d="M378.799,308.522C378.799,308.522 372.957,308.227 371.497,307.932C370.036,307.637 365.368,303.121 363.32,303.43C361.273,303.738 357.492,307.932 356.031,311.47C354.571,315.007 353.984,316.83 353.984,316.83C353.984,316.83 348.768,321.627 351.376,324.87C353.984,328.112 356.931,326.973 356.931,326.973C356.931,326.973 358.678,329.975 361.012,330.27C362.744,330.467 364.486,330.57 366.228,330.578C367.739,331.054 369.318,331.258 370.897,331.181C372.144,330.9 373.332,330.391 374.404,329.68C375.643,329.829 376.891,329.504 377.912,328.769C378.982,327.898 384.158,322.458 386.832,319.657L388.409,317.982L378.799,308.522Z" fill="#FFFFFF" stroke="#263238" stroke-width="0.75" stroke-miterlimit="10"/>
<path d="M427.543,246.734C427.543,246.734 416.745,259.035 413.199,265.025C407.546,274.165 401.408,282.977 394.812,291.423C390.731,296.22 376.426,307.932 376.426,307.932C376.426,307.932 380.794,317.526 384.015,319.027C385.889,319.913 387.841,320.613 389.844,321.117L401.58,312.126C401.58,312.126 423.748,294.706 435.484,284.83C447.22,274.954 463.507,261.729 464.681,256.034C465.854,250.339 464.967,247.337 459.139,242.835C455.511,240.075 451.467,237.948 447.168,236.537Z" fill="#FFCB47" stroke="#263238" stroke-width="0.75" stroke-miterlimit="10"/>
<path d="M385.515,300.428C384.779,300.573 384.779,300.574 384.779,300.574C384.779,300.574 384.779,300.575 384.779,300.575C384.779,300.576 384.78,300.577 384.78,300.578C384.78,300.58 384.781,300.583 384.782,300.587C384.783,300.594 384.785,300.605 384.788,300.619C384.794,300.647 384.802,300.687 384.814,300.738C384.836,300.84 384.87,300.988 384.916,301.175C385.008,301.548 385.15,302.079 385.348,302.714C385.743,303.981 386.37,305.679 387.292,307.384C389.117,310.759 392.23,314.377 397.185,314.377L397.185,312.877C393.078,312.877 390.356,309.896 388.611,306.671C387.749,305.076 387.156,303.474 386.78,302.267C386.592,301.665 386.458,301.164 386.373,300.816C386.33,300.641 386.299,300.506 386.279,300.415C386.269,300.369 386.261,300.335 386.257,300.313C386.254,300.301 386.253,300.293 386.252,300.288C386.251,300.286 386.251,300.284 386.251,300.283C386.25,300.283 386.25,300.282 386.25,300.282C386.25,300.282 386.25,300.282 386.25,300.282C386.25,300.282 386.25,300.283 385.515,300.428Z" fill="#263238"/>
<path d="M258.322,203.238C258.322,203.238 259.522,213.784 260.135,218.541C260.31,220.938 260.995,223.266 262.143,225.361C262.143,225.361 252.689,247.069 252.285,247.699C251.88,248.329 242.022,267.343 240.405,269.608C238.788,271.873 234.981,279.122 237.393,283.678C239.805,288.234 243.626,297.534 248.66,297.735C253.693,297.936 260.735,294.84 265.612,291.946C270.488,289.051 272.053,287.189 272.458,278.921C272.862,270.653 272.653,255.766 274.074,247.9C275.496,240.034 276.487,231.82 277.491,228.671C278.495,225.522 284.337,226.607 286.345,225.361C288.353,224.115 290.166,221.435 293.791,219.773C296.935,218.545 300.354,218.262 303.649,218.956C304.862,219.371 307.066,217.509 306.466,215.231C305.866,212.953 301.837,211.72 297.807,212.122C293.778,212.524 290.166,213.784 289.162,213.167C288.158,212.551 287.154,201.576 287.154,201.576C287.154,201.576 272.81,202.822 267.828,203.023C262.847,203.224 258.322,203.238 258.322,203.238Z" fill="#FFFFFF" stroke="#263238" stroke-width="0.75" stroke-miterlimit="10"/>
<path d="M280.451,195.171C280.451,195.171 280.66,208.826 280.66,210.058C280.662,210.346 280.723,210.63 280.837,210.892C280.951,211.155 281.117,211.39 281.324,211.584C281.531,211.778 281.774,211.925 282.039,212.018C282.304,212.111 282.585,212.146 282.864,212.122C283.881,211.921 286.489,212.953 287.102,209.857C287.714,206.762 288.901,198.065 288.301,196.002C287.701,193.938 282.264,193.107 280.451,195.171Z" fill="#FFFFFF" stroke="#263238" stroke-width="0.75" stroke-miterlimit="10"/>
<path d="M280.451,195.171C280.451,195.171 274.022,193.523 272.21,194.554C270.397,195.586 273.214,210.273 273.41,211.505C273.605,212.738 276.435,213.368 277.634,212.953C278.834,212.537 280.66,211.72 280.66,210.058C280.66,208.397 280.451,195.171 280.451,195.171Z" fill="#FFFFFF" stroke="#263238" stroke-width="0.75" stroke-miterlimit="10"/>
<path d="M270.801,194.97C270.801,194.97 266.576,194.139 265.364,195.586C264.151,197.033 263.76,199.097 264.151,202.822C264.683,206.489 265.77,210.047 267.372,213.368C268.18,214.614 270.801,214.815 272.405,214.199C274.009,213.582 273.409,211.519 273.409,211.519C273.409,211.519 272.601,210.688 272.405,204.283C272.21,197.878 272.21,194.568 272.21,194.568L270.801,194.97Z" fill="#FFFFFF" stroke="#263238" stroke-width="0.75" stroke-miterlimit="10"/>
<path d="M263.76,197.449C262.952,197.65 257.918,197.864 257.723,199.928C257.527,201.992 259.327,211.72 260.135,212.752C260.944,213.784 263.147,213.368 263.956,212.953C264.764,212.537 266.173,211.921 265.964,210.675C265.755,209.429 263.76,197.449 263.76,197.449Z" fill="#FFFFFF" stroke="#263238" stroke-width="0.75" stroke-miterlimit="10"/>
<path d="M265.364,238.386C263.918,238.149 262.558,237.531 261.415,236.591C260.272,235.652 259.386,234.423 258.844,233.026C256.079,239.351 252.559,247.35 252.324,247.766C251.92,248.382 242.061,267.41 240.444,269.675C238.827,271.939 235.02,279.189 237.432,283.745C239.845,288.301 243.665,297.6 248.699,297.801C253.732,298.002 260.774,294.907 265.651,292.013C270.528,289.118 272.092,287.256 272.497,278.988C272.901,270.72 272.692,255.833 274.114,247.967C274.792,244.108 275.418,240.168 275.939,236.764C272.544,237.979 268.957,238.529 265.364,238.386Z" fill="#FFCB47" stroke="#263238" stroke-width="0.75" stroke-miterlimit="10"/>
<path d="M274.622,215.646C274.622,215.646 271.192,218.741 270.801,221.435C270.598,223.156 270.951,224.898 271.805,226.393Z" fill="#FFFFFF" stroke="#263238" stroke-width="0.75" stroke-miterlimit="10"/>
</svg>
